<svg width="60" height="30" viewBox="0 0 60 30" fill="none" xmlns="http://www.w3.org/2000/svg">
<path d="M0 0L60 0L31.25 30H0V0Z" fill="url(#paint0_linear_469_2772)"/>
<path d="M1.82327 13.6295C1.33617 12.6957 1.19591 11.6964 1.26757 10.6582C1.37276 9.69541 1.74246 8.83633 2.29512 8.05118C2.36601 7.95056 2.45824 7.86443 2.54057 7.77143C3.60242 6.67833 4.92573 6.07994 6.38473 5.73768C7.70423 5.49985 9.02678 5.50061 10.3531 5.67593C11.9013 5.92901 13.416 6.29566 14.8307 6.99924C14.9184 7.04269 14.9992 7.09986 15.0831 7.15094C14.6326 7.93913 14.1828 8.72732 13.7323 9.51552C13.5814 9.76402 13.4 10.0003 13.2879 10.2648C13.14 10.6155 12.9639 10.6109 12.6522 10.4585C11.1672 9.72895 9.5962 9.39279 7.93901 9.51476C7.42752 9.55211 6.93433 9.67331 6.52956 10.014C6.07143 10.3998 6.04551 10.8678 6.45486 11.297C6.57682 11.4243 6.71327 11.5432 6.86115 11.6392C7.63181 12.1393 8.47184 12.4846 9.35608 12.7247C9.48414 12.7742 9.61144 12.8284 9.74103 12.8733C10.6946 13.2011 11.6543 13.5129 12.5424 14.003C13.7422 14.6662 14.7164 15.5291 15.1257 16.8997C15.1677 17.0399 15.1402 17.2092 15.2957 17.3365C15.8774 15.7669 16.4552 14.2081 17.0322 12.65C17.3783 11.7406 17.7228 10.8312 18.0719 9.92334C18.123 9.7907 18.155 9.65883 18.1489 9.5178C18.232 9.49417 18.261 9.42404 18.2869 9.35239C18.5552 8.62289 18.8235 7.89339 19.0919 7.1639C19.1841 6.92911 19.2763 6.6951 19.3678 6.46031C19.6011 5.85735 19.6003 5.85735 20.2688 5.85735C21.6257 5.85735 22.9825 5.86193 24.3394 5.85278C24.5612 5.85126 24.6839 5.90462 24.7518 6.13025C24.8501 6.4565 24.9873 6.77056 25.1078 7.08996C25.4271 7.94904 25.7473 8.80813 26.0667 9.66797C26.5279 11.0431 27.0363 12.4015 27.5615 13.753C28.2582 15.6739 28.9542 17.5941 29.6509 19.5151C29.6723 19.5067 29.6936 19.4983 29.7157 19.4891C29.7157 17.5362 29.7157 15.5825 29.7157 13.6295C29.7157 12.3085 29.7157 10.9882 29.7157 9.66721C29.7157 8.80355 29.7157 7.93989 29.7157 7.07623C29.7203 6.75989 29.7332 6.44278 29.7271 6.12644C29.7233 5.94654 29.7515 5.85126 29.9696 5.85278C32.1375 5.86574 34.3061 5.82458 36.4718 5.88937C38.0314 5.93587 39.575 6.16303 40.9875 6.91997C41.3313 7.10444 41.627 7.35523 41.9632 7.54732C42.7522 8.27453 43.2682 9.16335 43.5373 10.1993C43.7576 11.207 43.8056 12.2231 43.6867 13.2469C43.4916 14.4109 43.0548 15.4636 42.2574 16.3501C41.0607 17.5354 39.5849 18.098 37.9407 18.2878C37.8919 18.2931 37.8461 18.3183 37.7989 18.3335C36.8361 18.3457 35.8741 18.361 34.9114 18.3663C34.7208 18.3671 34.6057 18.3861 34.6095 18.627C34.6263 19.602 34.6255 20.5761 34.6316 21.5511C34.6255 22.2486 34.6088 22.9461 34.6202 23.6435C34.624 23.9012 34.56 23.9904 34.2856 23.9889C31.594 23.9789 28.9031 23.9774 26.2115 23.9911C25.9767 23.9927 25.9051 23.8905 25.8533 23.7175C25.6429 23.0124 25.431 22.308 25.2305 21.5999C25.168 21.3796 25.1017 21.3072 24.841 21.3811C22.9909 21.9071 21.134 21.8987 19.2863 21.3651C19.0484 21.2965 18.9577 21.3255 18.8807 21.5702C18.6505 22.3019 18.383 23.0215 18.1497 23.7525C18.0979 23.9157 18.0361 23.9843 17.8684 23.9843C16.1945 23.9812 14.5205 23.9828 12.8084 23.9828C12.9731 23.5185 13.1271 23.0856 13.278 22.6617C13.1438 22.5893 13.0905 22.6602 13.0341 22.7029C11.2702 24.043 9.24402 24.389 7.09745 24.2602C5.55232 24.168 4.07046 23.8044 2.63814 23.2167C2.23185 23.0505 1.85528 22.8317 1.465 22.6389C1.35675 22.5855 1.25766 22.536 1.2973 22.3881C1.87586 21.3681 2.36143 20.301 2.87368 19.2475C2.99336 19.002 3.07797 18.9525 3.32419 19.1042C4.75803 19.9869 6.31688 20.4123 8.00685 20.3246C8.49013 20.2994 8.9696 20.2446 9.40105 20.0037C10.1023 19.6126 10.3318 18.8221 9.91711 18.2527C9.64651 17.8525 9.22344 17.6665 8.79809 17.5118C7.78808 17.1436 6.76739 16.8075 5.75432 16.4484C5.40901 16.3257 5.0759 16.1709 4.73669 16.0307C4.06741 15.6732 3.4027 15.3103 2.82718 14.8065C2.43461 14.465 2.1175 14.0572 1.82327 13.6295ZM21.0471 14.8492C20.7956 15.6183 20.5478 16.389 20.2902 17.1566C20.2246 17.3525 20.2993 17.4234 20.4777 17.4783C21.5517 17.8091 22.6227 17.8007 23.6975 17.4813C23.8652 17.4318 23.9178 17.37 23.8591 17.1901C23.6106 16.4332 23.3766 15.6717 23.1365 14.9117C22.8003 13.8094 22.4634 12.7072 22.1273 11.6049C22.099 11.6103 22.0708 11.6156 22.0419 11.6209C21.7103 12.6973 21.3787 13.7728 21.0471 14.8492ZM34.6293 11.1918C34.624 12.1675 34.6225 13.1432 34.6088 14.1189C34.6057 14.3224 34.6812 14.3796 34.8748 14.3773C35.5082 14.3697 36.144 14.3956 36.7736 14.3095C38.3637 14.0915 39.3242 13.086 38.8501 11.1918C38.6115 10.4005 38.0062 10.0301 37.2653 9.82729C36.4603 9.60699 35.634 9.68322 34.8146 9.66797C34.6347 9.66492 34.6088 9.75716 34.6118 9.90352C34.621 10.3334 34.624 10.7626 34.6293 11.1918Z" fill="white"/>
<defs>
<linearGradient id="paint0_linear_469_2772" x1="15.625" y1="0" x2="15.625" y2="30" gradientUnits="userSpaceOnUse">
<stop stop-color="#2BA7E7"/>
<stop offset="0.489583" stop-color="#145FAD"/>
<stop offset="1" stop-color="#274494"/>
</linearGradient>
</defs>
</svg>
